# xmcd
#
# Track frame offsets: 
#        150
#        17593
#        30826
#        45470
#        60476
#        73019
#        93335
#        103128
#        112010
#        122713
#        133656
#        150995
#        165458
#        175830
#
# Disc length: 2480 seconds
#
# Revision: 1
# Processed by: cddbd v1.5.2PL0 Copyright (c) Steve Scherf et al.
# Submitted via: ExactAudioCopyFreeDBPlugin 1.0
#
DISCID=a909ae0e
DTITLE=Tom Russell - Play One More: The Songs of Ian and Sylvia
DYEAR=2017
DGENRE=Country
TTITLE0=Wild geese  (2017)
TTITLE1=Thrown to the wolves  (2017)
TTITLE2=Rio Grande  (2017)
TTITLE3=The night the Chinese restaurant burned down  (2017)
TTITLE4=Play one more  (2017)
TTITLE5=Old Cheyenne  (2017)
TTITLE6=Short grass  (2017)
TTITLE7=Sam Bonnifield's saloon  (2017)
TTITLE8=These friends of mine  (2017)
TTITLE9=Red velvet  (2017)
TTITLE10=The renegade  (2017)
TTITLE11=When the wolves no longer sing  (2017)
TTITLE12=Ian and Sylvia - Grey morning [unreleased demo]
TTITLE13=Ian and Sylvia - The French girl [unreleased demo]
EXTD=
EXTT0=
EXTT1=
EXTT2=
EXTT3=
EXTT4=
EXTT5=
EXTT6=
EXTT7=
EXTT8=
EXTT9=
EXTT10=
EXTT11=
EXTT12=
EXTT13=
PLAYORDER=
